<svg width="417" height="169" viewBox="0 0 417 169" fill="none" xmlns="http://www.w3.org/2000/svg">
<rect width="416" height="169" rx="43" fill="url(#paint0_linear_1_7)"/>
<path d="M93.288 76.672L77.448 80.992C76.744 79.264 76.008 78.144 75.24 77.632C74.472 77.056 73.192 76.768 71.4 76.768C68.456 76.768 66.984 77.696 66.984 79.552C66.984 81.728 69.32 83.008 73.992 83.392C81.096 84.032 85.896 85.344 88.392 87.328C91.656 89.952 93.288 93.088 93.288 96.736C93.288 102.048 91.016 106.144 86.472 109.024C81.928 111.904 75.432 113.344 66.984 113.344C60.712 113.344 55.912 112.288 52.584 110.176C49.256 108.064 46.984 104.64 45.768 99.904L61.896 95.776C63.752 99.616 66.376 101.536 69.768 101.536C72.584 101.536 73.992 100.512 73.992 98.464C73.992 97.056 73.064 96.064 71.208 95.488C69.736 95.168 68.232 94.848 66.696 94.528C59.976 93.12 55.56 91.52 53.448 89.728C50.44 87.168 48.936 84.256 48.936 80.992C48.936 76.128 50.76 72.512 54.408 70.144C58.76 67.328 64.936 65.92 72.936 65.92C84.264 65.92 91.048 69.504 93.288 76.672ZM126.528 65.92C135.424 65.92 141.824 67.424 145.728 70.432C150.528 74.144 152.928 80.384 152.928 89.152C152.928 97.6 150.496 103.936 145.632 108.16C141.664 111.616 134.72 113.344 124.8 113.344C116.48 113.344 110.464 112.032 106.752 109.408C101.696 105.824 99.168 99.264 99.168 89.728C99.168 81.152 101.536 74.976 106.272 71.2C110.688 67.68 117.44 65.92 126.528 65.92ZM126.048 78.88C121.248 78.88 118.848 82.4 118.848 89.44C118.848 96.672 121.248 100.288 126.048 100.288C130.848 100.288 133.248 96.736 133.248 89.632C133.248 82.464 130.848 78.88 126.048 78.88ZM179.609 44.8V71.296C183.961 67.712 188.665 65.92 193.721 65.92C199.097 65.92 203.577 67.456 207.161 70.528C211.769 74.432 214.073 80.64 214.073 89.152C214.073 96.576 212.185 102.464 208.409 106.816C204.633 111.104 199.481 113.248 192.953 113.248C188.409 113.248 183.961 111.52 179.609 108.064L177.209 112H161.081V44.8H179.609ZM187.193 79.072C184.825 79.072 182.969 80.032 181.625 81.952C180.281 83.808 179.609 86.368 179.609 89.632C179.609 92.896 180.249 95.488 181.529 97.408C182.873 99.264 184.729 100.192 187.097 100.192C189.337 100.192 191.097 99.264 192.377 97.408C193.721 95.552 194.393 93.024 194.393 89.824C194.393 82.656 191.993 79.072 187.193 79.072ZM222.394 67.168H240.346V74.56C242.394 71.296 244.346 69.024 246.202 67.744C248.122 66.464 250.394 65.824 253.018 65.824C255.066 65.824 257.882 66.496 261.466 67.84L255.898 85.504C253.53 84.224 251.322 83.584 249.274 83.584C246.266 83.584 244.122 84.768 242.842 87.136C241.562 89.44 240.922 93.28 240.922 98.656V112H222.394V67.168ZM267.806 94.528C270.622 94.528 272.958 95.424 274.814 97.216C276.67 98.944 277.598 101.184 277.598 103.936C277.598 106.56 276.638 108.768 274.718 110.56C272.862 112.352 270.558 113.248 267.806 113.248C264.926 113.248 262.558 112.352 260.702 110.56C258.846 108.768 257.918 106.496 257.918 103.744C257.918 101.12 258.846 98.944 260.702 97.216C262.622 95.424 264.99 94.528 267.806 94.528ZM337.872 67.168V112H319.344V107.584C317.488 109.632 315.568 111.04 313.584 111.808C311.024 112.768 308.208 113.248 305.136 113.248C298.8 113.248 293.872 111.232 290.352 107.2C286.896 103.104 285.168 97.376 285.168 90.016C285.168 81.248 287.472 74.848 292.08 70.816C295.792 67.552 300.72 65.92 306.864 65.92C310.128 65.92 312.656 66.4 314.448 67.36C316.24 68.256 317.872 69.92 319.344 72.352V67.168H337.872ZM312.048 79.072C307.248 79.072 304.848 82.528 304.848 89.44C304.848 96.608 307.184 100.192 311.856 100.192C316.848 100.192 319.344 96.672 319.344 89.632C319.344 82.592 316.912 79.072 312.048 79.072ZM366.078 67.168V112H347.55V67.168H366.078ZM356.67 45.088C359.55 45.088 361.918 45.984 363.774 47.776C365.63 49.568 366.558 51.84 366.558 54.592C366.558 57.344 365.63 59.616 363.774 61.408C361.918 63.2 359.55 64.096 356.67 64.096C353.726 64.096 351.326 63.2 349.47 61.408C347.614 59.616 346.686 57.312 346.686 54.496C346.686 51.744 347.614 49.504 349.47 47.776C351.39 45.984 353.79 45.088 356.67 45.088Z" fill="white"/>
<defs>
<linearGradient id="paint0_linear_1_7" x1="77" y1="181" x2="560" y2="-483" gradientUnits="userSpaceOnUse">
<stop stop-color="#6319B8" stop-opacity="0.85"/>
<stop offset="1" stop-color="#864EC9" stop-opacity="0"/>
<stop offset="1" stop-color="#6319B8" stop-opacity="0"/>
</linearGradient>
</defs>
</svg>
